<svg xmlns="http://www.w3.org/2000/svg" xmlns:xlink="http://www.w3.org/1999/xlink" width="1280" zoomAndPan="magnify" viewBox="0 0 960 599.999999" height="800" preserveAspectRatio="xMidYMid meet" version="1.0"><defs><clipPath id="465f709309"><path d="M 571 0 L 744.125 0 L 744.125 234 L 571 234 Z M 571 0 " clip-rule="nonzero"/></clipPath><clipPath id="4f21ac9859"><path d="M 216.125 256 L 258 256 L 258 293 L 216.125 293 Z M 216.125 256 " clip-rule="nonzero"/></clipPath></defs><path fill="#feb9a5" d="M 371.324219 102.59375 L 371.554688 113.105469 C 371.554688 116.609375 339.300781 116.609375 339.300781 113.105469 L 339.300781 102.59375 Z M 371.324219 102.59375 " fill-opacity="1" fill-rule="nonzero"/><path fill="#feb9a5" d="M 371.324219 102.59375 L 339.300781 102.59375 C 339.300781 102.59375 339.300781 100.492188 339.300781 100.492188 C 339.300781 100.492188 338.835938 100.722656 338.367188 100.722656 C 336.730469 100.957031 333.457031 100.257812 331.589844 93.949219 C 328.785156 85.304688 318.5 71.054688 318.03125 59.140625 C 317.796875 47.226562 321.070312 12.417969 367.347656 18.023438 C 367.347656 18.023438 385.113281 23.863281 395.398438 21.292969 C 395.398438 21.292969 397.96875 28.769531 394.695312 33.675781 C 394.230469 34.375 393.527344 35.078125 392.824219 35.542969 C 392.824219 35.542969 414.328125 95.816406 389.554688 102.828125 C 386.046875 103.996094 383.710938 103.292969 371.324219 102.59375 Z M 371.324219 102.59375 " fill-opacity="1" fill-rule="nonzero"/><path fill="#15142b" d="M 394.695312 33.675781 C 393.761719 34.609375 393.058594 35.3125 392.828125 35.542969 C 392.828125 35.542969 376.699219 39.050781 381.839844 46.523438 C 386.28125 52.597656 384.878906 60.308594 379.972656 64.511719 C 376.230469 67.550781 377.398438 80.867188 377.398438 80.867188 L 373.660156 82.269531 C 369.21875 58.90625 355.195312 75.261719 356.832031 92.3125 C 357.765625 103.058594 338.835938 100.257812 338.367188 100.492188 C 336.730469 100.722656 333.457031 100.023438 331.589844 93.714844 C 328.785156 85.070312 318.5 70.820312 318.03125 58.90625 C 317.796875 46.992188 321.070312 12.183594 367.347656 17.789062 C 367.347656 17.789062 381.375 21.0625 395.632812 17.324219 C 398.203125 16.621094 400.539062 18.722656 400.304688 21.292969 C 399.605469 25.5 398.4375 30.640625 394.695312 33.675781 Z M 394.695312 33.675781 " fill-opacity="1" fill-rule="nonzero"/><path fill="#eda594" d="M 371.324219 102.59375 L 371.324219 108.667969 L 351.921875 102.59375 Z M 371.324219 102.59375 " fill-opacity="1" fill-rule="nonzero"/><path fill="#15142b" d="M 392.59375 51.429688 C 392.828125 52.832031 392.125 53.765625 390.957031 54 C 390.019531 54.234375 388.851562 53.300781 388.851562 51.898438 C 388.617188 50.496094 389.320312 49.328125 390.488281 49.328125 C 391.421875 49.09375 392.359375 50.027344 392.59375 51.429688 Z M 392.59375 51.429688 " fill-opacity="1" fill-rule="nonzero"/><path fill="#15142b" d="M 386.515625 47.691406 C 386.28125 47.460938 386.28125 47.226562 386.28125 46.992188 C 386.28125 46.992188 389.085938 43.019531 393.761719 45.589844 C 393.996094 45.824219 394.230469 46.058594 393.996094 46.292969 C 393.761719 46.523438 393.527344 46.757812 393.292969 46.523438 C 389.554688 44.421875 387.214844 47.460938 387.214844 47.691406 C 387.214844 47.691406 386.75 47.925781 386.515625 47.691406 Z M 386.515625 47.691406 " fill-opacity="1" fill-rule="nonzero"/><path fill="#15142b" d="M 384.878906 76.195312 C 384.878906 75.960938 384.878906 75.492188 385.347656 75.492188 C 385.582031 75.492188 386.046875 75.492188 386.046875 75.960938 C 386.046875 76.195312 387.214844 79.699219 391.890625 78.765625 C 392.125 78.765625 392.59375 78.996094 392.59375 79.230469 C 392.59375 79.464844 392.359375 79.933594 392.125 79.933594 C 388.386719 80.632812 385.582031 78.765625 384.878906 76.195312 Z M 384.878906 76.195312 " fill-opacity="1" fill-rule="nonzero"/><path fill="#feb9a5" d="M 397.5 53.300781 C 397.5 53.300781 408.71875 73.15625 398.902344 73.625 Z M 397.5 53.300781 " fill-opacity="1" fill-rule="nonzero"/><path fill="#a6b6f8" d="M 481.644531 237.390625 C 477.671875 237.390625 475.332031 234.121094 476.269531 230.148438 L 498.472656 144.410156 C 499.40625 140.4375 503.613281 137.167969 507.589844 137.167969 L 552.933594 137.167969 C 556.90625 137.167969 559.242188 140.4375 558.308594 144.410156 L 536.105469 230.148438 C 535.167969 234.121094 530.960938 237.390625 526.988281 237.390625 Z M 481.644531 237.390625 " fill-opacity="1" fill-rule="nonzero"/><path fill="#ccd7f6" d="M 475.332031 237.390625 C 471.359375 237.390625 469.023438 234.121094 469.957031 230.148438 L 492.164062 144.410156 C 493.097656 140.4375 497.304688 137.167969 501.277344 137.167969 L 546.621094 137.167969 C 550.59375 137.167969 552.933594 140.4375 551.996094 144.410156 L 529.792969 230.148438 C 528.859375 234.121094 524.652344 237.390625 520.675781 237.390625 Z M 475.332031 237.390625 " fill-opacity="1" fill-rule="nonzero"/><path fill="#ffffff" d="M 475.800781 235.289062 C 472.996094 235.289062 471.359375 232.953125 472.0625 230.148438 L 494.265625 144.410156 C 494.96875 141.605469 497.773438 139.269531 500.808594 139.269531 L 546.152344 139.269531 C 548.957031 139.269531 550.59375 141.605469 549.894531 144.410156 L 527.6875 230.148438 C 526.988281 232.953125 524.183594 235.289062 521.144531 235.289062 Z M 475.800781 235.289062 " fill-opacity="1" fill-rule="nonzero"/><path fill="#a6b6f8" d="M 528.832031 171.652344 C 529.230469 172.109375 529.601562 172.585938 529.941406 173.089844 C 530.28125 173.589844 530.589844 174.113281 530.867188 174.660156 C 531.144531 175.207031 531.390625 175.769531 531.601562 176.355469 C 531.8125 176.9375 531.992188 177.539062 532.136719 178.15625 C 532.28125 178.773438 532.390625 179.402344 532.464844 180.046875 C 532.542969 180.6875 532.582031 181.34375 532.589844 182.007812 C 532.59375 182.667969 532.566406 183.339844 532.503906 184.019531 C 532.441406 184.695312 532.34375 185.378906 532.210938 186.0625 C 532.078125 186.75 531.910156 187.433594 531.710938 188.121094 C 531.511719 188.808594 531.277344 189.492188 531.011719 190.171875 C 530.746094 190.851562 530.449219 191.527344 530.121094 192.195312 C 529.792969 192.863281 529.433594 193.523438 529.042969 194.171875 C 528.65625 194.820312 528.238281 195.460938 527.792969 196.085938 C 527.347656 196.710938 526.875 197.320312 526.378906 197.914062 C 525.882812 198.507812 525.359375 199.082031 524.816406 199.640625 C 524.273438 200.195312 523.707031 200.734375 523.121094 201.25 C 522.535156 201.765625 521.929688 202.257812 521.308594 202.722656 C 520.683594 203.191406 520.046875 203.636719 519.394531 204.050781 C 518.742188 204.46875 518.074219 204.859375 517.398438 205.21875 C 516.722656 205.582031 516.035156 205.914062 515.339844 206.214844 C 514.644531 206.515625 513.945312 206.789062 513.242188 207.027344 C 512.535156 207.269531 511.828125 207.476562 511.117188 207.65625 C 510.410156 207.832031 509.703125 207.972656 508.996094 208.085938 C 508.289062 208.195312 507.585938 208.273438 506.890625 208.316406 C 506.191406 208.359375 505.503906 208.367188 504.824219 208.34375 C 504.140625 208.320312 503.472656 208.261719 502.816406 208.171875 C 502.15625 208.082031 501.515625 207.957031 500.886719 207.796875 C 500.257812 207.640625 499.644531 207.453125 499.050781 207.230469 C 498.460938 207.007812 497.886719 206.753906 497.335938 206.46875 C 496.78125 206.183594 496.253906 205.871094 495.746094 205.523438 C 495.242188 205.179688 494.761719 204.808594 494.304688 204.40625 C 493.851562 204.003906 493.421875 203.578125 493.023438 203.121094 C 492.625 202.667969 492.253906 202.191406 491.914062 201.6875 C 491.574219 201.1875 491.265625 200.664062 490.988281 200.117188 C 490.710938 199.570312 490.46875 199.007812 490.253906 198.421875 C 490.042969 197.839844 489.867188 197.238281 489.722656 196.621094 C 489.578125 196.003906 489.464844 195.375 489.390625 194.730469 C 489.316406 194.089844 489.273438 193.433594 489.269531 192.769531 C 489.261719 192.105469 489.289062 191.4375 489.351562 190.757812 C 489.417969 190.082031 489.515625 189.398438 489.648438 188.714844 C 489.777344 188.027344 489.945312 187.34375 490.144531 186.65625 C 490.34375 185.96875 490.578125 185.285156 490.84375 184.605469 C 491.109375 183.925781 491.40625 183.25 491.734375 182.582031 C 492.0625 181.914062 492.421875 181.253906 492.8125 180.605469 C 493.203125 179.953125 493.617188 179.316406 494.0625 178.691406 C 494.507812 178.066406 494.980469 177.457031 495.476562 176.863281 C 495.972656 176.269531 496.496094 175.695312 497.039062 175.136719 C 497.585938 174.578125 498.148438 174.042969 498.734375 173.527344 C 499.324219 173.011719 499.925781 172.519531 500.550781 172.050781 C 501.171875 171.585938 501.808594 171.140625 502.464844 170.726562 C 503.117188 170.308594 503.78125 169.917969 504.457031 169.558594 C 505.136719 169.195312 505.820312 168.863281 506.515625 168.5625 C 507.210938 168.257812 507.910156 167.988281 508.617188 167.746094 C 509.320312 167.507812 510.027344 167.296875 510.738281 167.121094 C 511.445312 166.945312 512.15625 166.804688 512.863281 166.691406 C 513.570312 166.582031 514.269531 166.503906 514.96875 166.460938 C 515.664062 166.417969 516.351562 166.410156 517.035156 166.433594 C 517.714844 166.457031 518.382812 166.515625 519.042969 166.605469 C 519.699219 166.695312 520.34375 166.820312 520.972656 166.976562 C 521.597656 167.136719 522.210938 167.324219 522.804688 167.546875 C 523.398438 167.769531 523.96875 168.023438 524.523438 168.308594 C 525.074219 168.59375 525.605469 168.90625 526.109375 169.253906 C 526.617188 169.597656 527.097656 169.96875 527.550781 170.371094 C 528.007812 170.773438 528.433594 171.199219 528.832031 171.652344 Z M 528.832031 171.652344 " fill-opacity="1" fill-rule="nonzero"/><path fill="#ffffff" d="M 518.105469 179.921875 C 517.40625 182.722656 514.601562 184.828125 511.796875 184.828125 C 508.992188 184.828125 507.355469 182.492188 508.054688 179.921875 C 508.757812 177.117188 511.5625 175.015625 514.367188 175.015625 C 517.171875 174.78125 518.808594 177.117188 518.105469 179.921875 Z M 518.105469 179.921875 " fill-opacity="1" fill-rule="nonzero"/><path fill="#ffffff" d="M 518.105469 198.144531 L 498.707031 198.144531 C 498.003906 198.144531 497.773438 197.675781 498.003906 196.976562 C 500.109375 191.601562 505.71875 187.394531 511.328125 187.394531 C 516.9375 187.394531 520.445312 191.601562 519.742188 196.976562 C 519.273438 197.441406 518.574219 198.144531 518.105469 198.144531 Z M 518.105469 198.144531 " fill-opacity="1" fill-rule="nonzero"/><path fill="#feb9a5" d="M 322.472656 246.96875 L 322.472656 284.582031 C 304.710938 284.582031 289.75 278.039062 279.234375 265.65625 C 263.574219 247.4375 261.234375 220.570312 261.703125 203.75 C 261.9375 195.804688 262.636719 189.964844 262.871094 188.332031 L 300.035156 193.9375 C 299.566406 196.742188 299.332031 201.648438 299.332031 207.488281 C 299.332031 218.933594 300.96875 233.417969 307.746094 241.363281 C 310.085938 243.933594 313.824219 246.96875 322.472656 246.96875 Z M 322.472656 246.96875 " fill-opacity="1" fill-rule="nonzero"/><path fill="#feb9a5" d="M 526.988281 236.921875 C 499.640625 247.4375 470.660156 250.472656 444.480469 237.15625 C 428.820312 229.214844 418.304688 217.066406 411.289062 206.085938 C 402.875 192.769531 399.605469 181.324219 399.371094 180.386719 L 417.601562 175.714844 L 435.832031 170.808594 C 435.832031 170.808594 437.703125 177.117188 441.910156 184.359375 C 446.117188 191.132812 452.429688 199.078125 461.777344 203.75 C 475.101562 210.523438 492.394531 209.824219 513.433594 201.878906 Z M 526.988281 236.921875 " fill-opacity="1" fill-rule="nonzero"/><path fill="#f3f1fc" d="M 386.984375 548.335938 L 387.214844 563.988281 L 428.820312 563.285156 L 428.585938 547.867188 Z M 386.984375 548.335938 " fill-opacity="1" fill-rule="nonzero"/><path fill="#3a55f5" d="M 470.894531 591.085938 C 361.273438 592.253906 396.332031 591.789062 387.449219 592.023438 L 387.214844 558.148438 C 402.410156 565.625 404.511719 554.175781 428.820312 557.445312 C 428.820312 557.445312 440.976562 573.566406 450.558594 575.433594 C 459.441406 577.304688 470.894531 581.976562 470.894531 591.085938 Z M 470.894531 591.085938 " fill-opacity="1" fill-rule="nonzero"/><path fill="#ffffff" d="M 401.707031 591.789062 C 401.707031 584.078125 395.632812 577.539062 387.214844 577.539062 L 387.214844 576.371094 C 395.863281 576.371094 402.875 583.144531 402.875 591.789062 Z M 401.707031 591.789062 " fill-opacity="1" fill-rule="nonzero"/><path fill="#333333" d="M 447.988281 575.433594 C 442.378906 574.96875 433.730469 572.632812 433.261719 566.792969 C 432.792969 558.847656 446.585938 565.625 448.453125 574.734375 C 448.6875 574.96875 448.453125 575.433594 447.988281 575.433594 Z M 436.066406 564.457031 C 435.597656 564.457031 434.429688 564.6875 434.664062 566.792969 C 434.898438 572.164062 444.480469 573.800781 447.285156 574.265625 C 445.648438 568.660156 439.105469 563.988281 436.066406 564.457031 Z M 436.066406 564.457031 " fill-opacity="1" fill-rule="nonzero"/><path fill="#333333" d="M 447.519531 574.96875 C 447.519531 574.5 447.050781 565.855469 451.726562 564.6875 C 457.101562 563.519531 454.0625 573.332031 448.21875 575.433594 C 447.753906 575.433594 447.519531 575.203125 447.519531 574.96875 Z M 451.960938 565.855469 C 448.921875 566.558594 448.6875 571.929688 448.6875 574.035156 C 451.726562 572.398438 453.832031 568.191406 453.363281 566.558594 C 453.128906 565.855469 452.660156 565.625 451.960938 565.855469 Z M 451.960938 565.855469 " fill-opacity="1" fill-rule="nonzero"/><path fill="#feb9a5" d="M 386.5625 527.171875 L 428.160156 526.539062 L 428.550781 552.234375 L 386.953125 552.867188 Z M 386.5625 527.171875 " fill-opacity="1" fill-rule="nonzero"/><path fill="#332f51" d="M 470.894531 591.085938 L 454.53125 591.320312 C 452.195312 586.648438 453.363281 580.808594 457.335938 577.304688 C 464.582031 579.875 470.894531 584.3125 470.894531 591.085938 Z M 470.894531 591.085938 " fill-opacity="1" fill-rule="nonzero"/><path fill="#eda594" d="M 428.585938 541.09375 C 418.070312 546 403.8125 548.335938 386.984375 548.335938 L 386.75 531.75 Z M 428.585938 541.09375 " fill-opacity="1" fill-rule="nonzero"/><path fill="#332f51" d="M 470.894531 591.085938 L 470.894531 594.589844 C 470.894531 596.226562 469.488281 597.863281 467.855469 597.863281 L 390.722656 598.5625 C 389.085938 598.5625 387.449219 597.160156 387.449219 595.527344 L 387.449219 592.023438 Z M 470.894531 591.085938 " fill-opacity="1" fill-rule="nonzero"/><path fill="#f3f1fc" d="M 290.917969 547.867188 L 290.917969 563.519531 L 332.523438 563.285156 L 332.523438 547.867188 Z M 290.917969 547.867188 " fill-opacity="1" fill-rule="nonzero"/><path fill="#3a55f5" d="M 374.363281 591.554688 C 264.742188 591.554688 299.800781 591.554688 290.917969 591.554688 L 290.917969 557.679688 C 306.113281 565.15625 308.214844 553.707031 332.523438 557.445312 C 332.523438 557.445312 344.445312 573.566406 354.027344 575.667969 C 363.140625 577.539062 374.59375 582.445312 374.363281 591.554688 Z M 374.363281 591.554688 " fill-opacity="1" fill-rule="nonzero"/><path fill="#ffffff" d="M 305.410156 591.554688 C 305.410156 583.613281 298.867188 577.070312 290.917969 577.070312 L 290.917969 575.902344 C 299.566406 575.902344 306.578125 582.910156 306.578125 591.554688 Z M 305.410156 591.554688 " fill-opacity="1" fill-rule="nonzero"/><path fill="#333333" d="M 351.6875 575.667969 C 346.078125 575.203125 337.433594 572.632812 337.199219 566.792969 C 337.199219 564.6875 337.898438 563.519531 339.769531 563.285156 C 343.507812 562.820312 351.222656 568.191406 352.390625 574.734375 C 352.390625 575.203125 352.15625 575.667969 351.6875 575.667969 Z M 339.769531 564.457031 C 339.300781 564.457031 338.132812 564.6875 338.367188 566.792969 C 338.601562 572.164062 348.183594 574.035156 350.988281 574.265625 C 349.351562 568.894531 343.042969 564.222656 339.769531 564.457031 Z M 339.769531 564.457031 " fill-opacity="1" fill-rule="nonzero"/><path fill="#333333" d="M 351.222656 574.96875 C 351.222656 574.5 350.753906 565.855469 355.664062 564.921875 C 357.066406 564.6875 358 565.15625 358.234375 566.324219 C 358.933594 568.894531 356.128906 574.265625 351.921875 575.667969 C 351.457031 575.667969 351.222656 575.433594 351.222656 574.96875 Z M 355.664062 566.089844 C 352.625 566.792969 352.15625 572.164062 352.15625 574.265625 C 355.195312 572.632812 357.300781 568.660156 356.832031 566.792969 C 356.832031 566.089844 356.363281 565.855469 355.664062 566.089844 Z M 355.664062 566.089844 " fill-opacity="1" fill-rule="nonzero"/><path fill="#feb9a5" d="M 290.613281 526.980469 L 332.21875 526.730469 L 332.375 552.425781 L 290.769531 552.679688 Z M 290.613281 526.980469 " fill-opacity="1" fill-rule="nonzero"/><path fill="#332f51" d="M 374.363281 591.554688 L 358 591.554688 C 355.664062 586.648438 356.832031 581.042969 360.804688 577.539062 C 368.285156 580.109375 374.59375 584.78125 374.363281 591.554688 Z M 374.363281 591.554688 " fill-opacity="1" fill-rule="nonzero"/><path fill="#eda594" d="M 332.523438 541.09375 C 322.003906 546 307.746094 548.101562 290.683594 548.101562 L 290.453125 531.515625 Z M 332.523438 541.09375 " fill-opacity="1" fill-rule="nonzero"/><path fill="#332f51" d="M 374.363281 591.554688 L 374.363281 595.058594 C 374.363281 596.695312 372.957031 598.328125 371.089844 598.328125 L 293.957031 598.328125 C 292.320312 598.328125 290.683594 596.929688 290.683594 595.292969 L 290.683594 591.789062 Z M 374.363281 591.554688 " fill-opacity="1" fill-rule="nonzero"/><path fill="#00d3bd" d="M 430.925781 541.09375 C 430.925781 543.664062 383.007812 543.664062 383.007812 541.09375 L 360.105469 394.613281 C 360.105469 393.445312 335.328125 541.09375 335.328125 541.09375 C 335.328125 543.664062 286.710938 543.664062 286.710938 541.09375 L 297.464844 311.914062 L 299.101562 282.246094 L 418.769531 282.246094 C 432.5625 578.472656 430.691406 536.886719 430.925781 541.09375 Z M 430.925781 541.09375 " fill-opacity="1" fill-rule="nonzero"/><path fill="#15142b" d="M 312.1875 534.320312 C 305.644531 534.320312 299.566406 534.085938 294.890625 533.851562 C 287.179688 533.382812 286.476562 532.683594 286.476562 531.75 C 286.476562 531.515625 286.710938 531.046875 287.179688 531.046875 C 287.414062 531.046875 287.648438 531.28125 287.648438 531.515625 C 290.453125 533.617188 333.691406 533.617188 336.496094 531.515625 C 336.496094 531.28125 336.730469 531.046875 336.964844 531.046875 C 337.199219 531.046875 337.664062 531.28125 337.664062 531.75 C 337.664062 533.617188 329.015625 534.320312 312.1875 534.320312 Z M 312.1875 534.320312 " fill-opacity="1" fill-rule="nonzero"/><path fill="#15142b" d="M 405.679688 534.320312 C 399.136719 534.320312 393.292969 534.085938 388.617188 533.851562 C 380.90625 533.382812 380.4375 532.683594 380.4375 531.75 C 380.4375 531.046875 381.375 531.046875 381.605469 531.515625 C 384.410156 533.617188 426.949219 533.617188 429.753906 531.515625 C 429.988281 530.8125 430.925781 531.046875 430.925781 531.75 C 430.925781 533.617188 422.277344 534.320312 405.679688 534.320312 Z M 405.679688 534.320312 " fill-opacity="1" fill-rule="nonzero"/><path fill="#00baa3" d="M 419.472656 294.394531 C 414.097656 301.167969 406.148438 303.503906 397.734375 305.375 C 372.726562 310.980469 347.015625 316.820312 321.304688 316.585938 C 313.355469 316.585938 305.175781 316.121094 297.464844 314.71875 L 299.101562 282.246094 L 418.769531 282.246094 Z M 419.472656 294.394531 " fill-opacity="1" fill-rule="nonzero"/><path fill="#eda594" d="M 300.035156 193.9375 C 299.566406 196.742188 299.332031 201.648438 299.332031 207.488281 C 283.207031 209.121094 270.585938 203.984375 263.574219 203.75 C 262.871094 203.75 262.402344 203.75 261.703125 203.75 C 261.9375 195.804688 262.636719 189.964844 262.871094 188.332031 Z M 300.035156 193.9375 " fill-opacity="1" fill-rule="nonzero"/><path fill="#eda594" d="M 441.910156 184.359375 C 438.402344 189.03125 431.390625 188.332031 426.484375 190.902344 C 420.171875 194.171875 417.367188 202.347656 411.289062 206.085938 C 402.875 192.769531 399.605469 181.320312 399.371094 180.386719 L 417.601562 175.714844 L 435.832031 170.808594 C 435.832031 170.808594 437.46875 176.882812 441.910156 184.359375 Z M 441.910156 184.359375 " fill-opacity="1" fill-rule="nonzero"/><path fill="#fe674b" d="M 408.484375 195.105469 L 421.109375 293.925781 C 421.109375 303.972656 297.230469 305.605469 297.230469 295.5625 L 295.125 196.273438 C 295.125 200.011719 258.195312 199.542969 258.195312 195.804688 C 266.84375 150.953125 291.152344 107.964844 350.285156 109.132812 C 418.535156 110.535156 439.574219 177.351562 439.574219 177.351562 C 441.207031 180.152344 410.121094 197.910156 408.484375 195.105469 Z M 408.484375 195.105469 " fill-opacity="1" fill-rule="nonzero"/><path fill="#15142b" d="M 259.597656 186.226562 C 259.597656 185.996094 259.832031 185.761719 260.300781 185.761719 C 260.535156 185.761719 260.769531 185.996094 260.769531 186.460938 C 260.769531 187.394531 266.84375 189.03125 279 189.03125 C 294.191406 189.265625 295.59375 187.164062 295.359375 187.164062 C 295.359375 186.929688 295.59375 186.695312 296.0625 186.695312 C 296.296875 186.695312 296.527344 186.929688 296.527344 187.394531 C 296.527344 188.5625 294.660156 189.5 290.683594 189.964844 C 282.269531 190.667969 259.597656 190.199219 259.597656 186.226562 Z M 259.597656 186.226562 " fill-opacity="1" fill-rule="nonzero"/><path fill="#15142b" d="M 351.921875 302.804688 C 344.445312 302.804688 296.527344 302.570312 296.527344 295.328125 C 296.527344 295.09375 296.761719 294.625 297.230469 294.625 C 297.699219 294.625 297.929688 294.859375 297.929688 295.328125 C 297.929688 296.027344 299.101562 298.132812 314.058594 300 C 348.417969 303.738281 420.640625 300.699219 420.640625 293.925781 C 420.640625 293.691406 420.875 293.226562 421.339844 293.226562 C 421.808594 293.226562 422.042969 293.457031 422.042969 293.925781 C 421.574219 300.933594 375.996094 302.804688 351.921875 302.804688 Z M 351.921875 302.804688 " fill-opacity="1" fill-rule="nonzero"/><path fill="#00baa3" d="M 360.105469 394.613281 L 349.117188 457.925781 L 352.859375 363.078125 Z M 360.105469 394.613281 " fill-opacity="1" fill-rule="nonzero"/><path fill="#15142b" d="M 360.105469 395.082031 C 359.871094 395.082031 359.636719 394.847656 359.636719 394.613281 L 352.625 363.308594 C 352.625 363.078125 352.859375 362.609375 353.089844 362.609375 C 353.324219 362.609375 353.792969 362.84375 353.792969 363.078125 L 360.804688 394.382812 C 360.570312 394.613281 360.335938 395.082031 360.105469 395.082031 Z M 360.105469 395.082031 " fill-opacity="1" fill-rule="nonzero"/><path fill="#feb9a5" d="M 526.285156 237.15625 C 533.066406 234.585938 540.777344 231.316406 542.179688 230.847656 C 542.179688 230.847656 545.21875 229.914062 545.453125 227.8125 C 545.6875 226.175781 543.582031 224.308594 543.582031 224.308594 C 543.582031 224.308594 546.621094 222.671875 546.621094 220.804688 C 546.621094 218.699219 543.816406 217.53125 543.816406 217.53125 C 548.726562 213.328125 543.816406 210.523438 543.816406 210.523438 C 543.816406 210.523438 546.621094 205.851562 543.816406 203.046875 C 541.246094 200.480469 533.53125 203.046875 533.53125 203.046875 C 533.53125 203.046875 538.207031 193.703125 534.933594 189.265625 C 532.128906 185.527344 516.003906 200.011719 513.199219 201.648438 Z M 526.285156 237.15625 " fill-opacity="1" fill-rule="nonzero"/><path fill="#0d243f" d="M 539.375 211.691406 L 543.582031 210.523438 C 544.050781 210.289062 544.519531 211.226562 543.816406 211.457031 L 539.609375 212.628906 C 539.140625 212.859375 538.910156 211.925781 539.375 211.691406 Z M 539.375 211.691406 " fill-opacity="1" fill-rule="nonzero"/><path fill="#0d243f" d="M 539.375 218.699219 L 543.582031 217.53125 C 544.285156 217.300781 544.519531 218.234375 543.816406 218.46875 L 539.609375 219.636719 C 539.140625 219.871094 538.910156 218.933594 539.375 218.699219 Z M 539.375 218.699219 " fill-opacity="1" fill-rule="nonzero"/><path fill="#0d243f" d="M 539.375 225.242188 L 543.582031 224.074219 C 543.816406 224.074219 544.050781 224.074219 544.050781 224.308594 C 544.050781 224.542969 544.050781 224.773438 543.816406 224.773438 L 539.609375 225.941406 C 538.910156 226.410156 538.675781 225.476562 539.375 225.242188 Z M 539.375 225.242188 " fill-opacity="1" fill-rule="nonzero"/><path fill="#0d243f" d="M 529.558594 203.28125 L 533.765625 202.113281 C 534.46875 201.878906 534.703125 202.816406 534 203.046875 L 529.792969 204.214844 C 529.324219 204.214844 528.859375 203.515625 529.558594 203.28125 Z M 529.558594 203.28125 " fill-opacity="1" fill-rule="nonzero"/><path fill="#15142b" d="M 294.894531 196.742188 C 294.425781 196.742188 294.191406 196.507812 294.425781 196.039062 L 296.761719 172.445312 C 296.761719 172.210938 296.996094 171.976562 297.464844 171.976562 C 297.699219 171.976562 297.929688 172.210938 297.929688 172.679688 L 295.59375 196.273438 C 295.59375 196.507812 295.359375 196.742188 294.894531 196.742188 Z M 294.894531 196.742188 " fill-opacity="1" fill-rule="nonzero"/><path fill="#15142b" d="M 408.484375 195.574219 C 407.785156 195.574219 408.71875 196.273438 395.398438 173.613281 C 395.164062 173.378906 395.398438 172.910156 395.632812 172.910156 C 395.863281 172.679688 396.332031 172.910156 396.332031 173.144531 L 408.953125 194.871094 C 409.1875 195.105469 408.953125 195.574219 408.484375 195.574219 Z M 408.484375 195.574219 " fill-opacity="1" fill-rule="nonzero"/><path fill="#15142b" d="M 402.410156 185.761719 C 402.410156 185.527344 402.410156 185.058594 402.644531 185.058594 C 416.433594 179.6875 427.183594 174.082031 435.367188 167.773438 C 435.597656 167.539062 436.066406 167.539062 436.300781 167.773438 C 436.535156 168.007812 436.535156 168.472656 436.300781 168.707031 C 428.121094 175.25 417.367188 180.855469 403.34375 186.226562 C 402.875 186.226562 402.644531 185.996094 402.410156 185.761719 Z M 402.410156 185.761719 " fill-opacity="1" fill-rule="nonzero"/><path fill="#15142b" d="M 269.414062 251.40625 C 269.183594 251.175781 269.414062 250.707031 269.648438 250.707031 L 281.804688 242.765625 C 282.039062 242.53125 282.503906 242.765625 282.503906 242.996094 C 282.738281 243.230469 282.503906 243.699219 282.269531 243.699219 L 270.117188 251.640625 C 269.882812 251.640625 269.648438 251.640625 269.414062 251.40625 Z M 269.414062 251.40625 " fill-opacity="1" fill-rule="nonzero"/><path fill="#15142b" d="M 459.207031 243.464844 C 458.972656 243.464844 458.738281 242.996094 458.738281 242.761719 L 462.246094 230.382812 C 462.246094 230.148438 462.710938 229.914062 462.945312 229.914062 C 463.179688 229.914062 463.414062 230.382812 463.414062 230.617188 L 459.90625 242.996094 C 459.671875 243.230469 459.441406 243.464844 459.207031 243.464844 Z M 459.207031 243.464844 " fill-opacity="1" fill-rule="nonzero"/><path fill="#f9c21d" d="M 649.464844 598.796875 L 640.113281 598.796875 C 635.441406 589.917969 600.847656 525.675781 603.652344 515.863281 C 606.691406 505.117188 622.816406 505.117188 630.765625 514.695312 C 636.609375 521.9375 643.386719 546 646.660156 558.148438 C 647.828125 562.351562 648.296875 565.15625 648.296875 565.15625 Z M 649.464844 598.796875 " fill-opacity="1" fill-rule="nonzero"/><path fill="#ffffff" d="M 718.179688 493.433594 C 715.84375 502.3125 710.234375 517.964844 702.519531 534.320312 C 688.964844 562.351562 671.433594 592.722656 667.929688 598.5625 L 645.023438 598.5625 C 645.023438 586.414062 646.425781 511.425781 658.34375 508.855469 C 667.226562 506.984375 669.097656 519.132812 668.863281 520.300781 C 669.796875 517.265625 687.09375 471.476562 705.089844 457.222656 C 723.789062 442.742188 724.957031 468.203125 718.179688 493.433594 Z M 718.179688 493.433594 " fill-opacity="1" fill-rule="nonzero"/><path fill="#0d243f" d="M 644.789062 599.265625 C 644.554688 599.265625 644.085938 599.03125 644.085938 598.5625 C 644.320312 585.714844 645.488281 510.957031 657.878906 508.386719 C 663.953125 506.984375 667.695312 511.890625 668.863281 517.964844 C 672.601562 507.917969 688.03125 469.839844 704.390625 456.992188 C 724.023438 441.574219 725.660156 467.738281 718.648438 493.433594 C 716.078125 502.546875 710.703125 518.199219 702.988281 534.550781 C 688.964844 563.519531 670.5 595.292969 668.394531 598.796875 C 667.929688 599.730469 668.863281 599.265625 644.789062 599.265625 Z M 645.488281 598.097656 L 667.695312 598.097656 C 670.5 593.421875 688.496094 562.351562 702.054688 534.085938 C 709.765625 517.964844 715.375 502.3125 717.714844 493.203125 C 723.789062 470.308594 724.492188 442.972656 705.324219 457.925781 C 686.859375 472.410156 669.566406 520.300781 669.332031 520.769531 C 669.332031 521.003906 668.863281 521.234375 668.628906 521.234375 C 668.394531 521.234375 668.164062 520.769531 668.164062 520.535156 C 668.164062 520.066406 667.695312 514.460938 664.421875 511.425781 C 662.785156 509.789062 660.683594 509.320312 658.113281 509.789062 C 652.96875 510.957031 648.996094 528.011719 646.894531 558.148438 C 645.722656 574.734375 645.488281 591.320312 645.488281 598.097656 Z M 718.179688 493.433594 Z M 718.179688 493.433594 " fill-opacity="1" fill-rule="nonzero"/><path fill="#ffffff" d="M 659.980469 594.359375 C 661.382812 558.148438 672.601562 522.171875 700.652344 486.660156 " fill-opacity="1" fill-rule="nonzero"/><path fill="#0d243f" d="M 659.980469 595.058594 C 659.746094 595.058594 659.28125 594.824219 659.28125 594.359375 C 660.683594 554.644531 674.003906 519.367188 699.949219 486.191406 C 700.183594 485.960938 700.417969 485.960938 700.882812 486.191406 C 701.117188 486.425781 701.117188 486.660156 700.882812 487.128906 C 674.941406 519.835938 661.851562 555.109375 660.449219 594.589844 C 660.683594 594.824219 660.214844 595.058594 659.980469 595.058594 Z M 659.980469 595.058594 " fill-opacity="1" fill-rule="nonzero"/><path fill="#00d3bd" d="M 710.703125 555.578125 C 705.09375 570.761719 680.082031 593.191406 673.304688 598.796875 L 662.320312 598.796875 C 664.1875 594.125 679.148438 559.082031 692.9375 542.261719 C 696.445312 538.054688 699.480469 535.488281 702.285156 534.550781 C 711.402344 530.8125 715.609375 542.027344 710.703125 555.578125 Z M 710.703125 555.578125 " fill-opacity="1" fill-rule="nonzero"/><path fill="#0d243f" d="M 687.5625 599.265625 L 625.621094 599.265625 C 625.390625 599.265625 624.921875 599.03125 624.921875 598.5625 C 624.921875 598.097656 625.15625 597.863281 625.621094 597.863281 L 687.5625 597.863281 C 687.796875 597.863281 688.261719 598.097656 688.261719 598.5625 C 688.261719 599.03125 687.796875 599.265625 687.5625 599.265625 Z M 687.5625 599.265625 " fill-opacity="1" fill-rule="nonzero"/><path fill="#ffffff" d="M 743.421875 11.949219 L 743.421875 221.269531 C 743.421875 227.578125 738.28125 232.484375 732.203125 232.484375 L 583.082031 232.484375 C 576.773438 232.484375 571.863281 227.34375 571.863281 221.269531 L 571.863281 11.949219 C 571.863281 5.640625 577.007812 0.734375 583.082031 0.734375 L 732.203125 0.734375 C 738.28125 0.734375 743.421875 5.875 743.421875 11.949219 Z M 743.421875 11.949219 " fill-opacity="1" fill-rule="nonzero"/><g clip-path="url(#465f709309)"><path fill="#a6b6f8" d="M 583.082031 233.417969 C 576.539062 233.417969 571.164062 228.046875 571.164062 221.503906 L 571.164062 12.183594 C 571.164062 5.640625 576.539062 0.269531 583.082031 0.269531 L 732.203125 0.269531 C 738.75 0.269531 744.125 5.640625 744.125 12.183594 L 744.125 221.503906 C 744.125 228.046875 738.75 233.417969 732.203125 233.417969 Z M 731.972656 1.203125 L 582.851562 1.203125 C 577.007812 1.203125 572.097656 6.109375 572.097656 11.949219 L 572.097656 221.269531 C 572.097656 227.109375 577.007812 232.015625 582.851562 232.015625 L 731.972656 232.015625 C 737.8125 232.015625 742.722656 227.109375 742.722656 221.269531 L 742.722656 11.949219 C 742.722656 6.109375 738.046875 1.203125 731.972656 1.203125 Z M 731.972656 1.203125 " fill-opacity="1" fill-rule="nonzero"/></g><path fill="#ccd7f6" d="M 611.597656 54.703125 C 603.886719 80.164062 618.378906 107.03125 643.621094 114.507812 C 669.097656 122.21875 695.742188 107.734375 703.457031 82.269531 C 711.167969 56.804688 696.675781 30.171875 671.433594 22.460938 C 646.191406 14.988281 619.3125 29.238281 611.597656 54.703125 Z M 617.910156 56.570312 C 624.453125 34.609375 647.59375 22.230469 669.566406 29.003906 C 691.535156 35.542969 703.921875 58.671875 697.378906 80.632812 C 690.835938 102.59375 667.695312 114.976562 645.722656 108.433594 C 623.753906 101.660156 611.367188 78.53125 617.910156 56.570312 Z M 617.910156 56.570312 " fill-opacity="1" fill-rule="nonzero"/><path fill="#ffffff" d="M 697.613281 80.632812 C 691.066406 102.59375 667.695312 115.207031 645.488281 108.667969 C 623.050781 101.890625 610.898438 78.0625 617.441406 56.570312 C 623.519531 35.542969 646.660156 21.761719 669.566406 28.535156 C 692.003906 35.3125 704.15625 58.671875 697.613281 80.632812 Z M 697.613281 80.632812 " fill-opacity="1" fill-rule="nonzero"/><path fill="#fe674b" d="M 684.523438 91.378906 C 682.417969 93.480469 680.082031 95.117188 677.511719 96.753906 C 666.757812 103.292969 652.035156 104.226562 640.113281 98.15625 C 639.179688 97.6875 638.476562 97.21875 637.542969 96.753906 C 634.972656 95.351562 632.636719 93.480469 630.53125 91.378906 C 631.699219 70.585938 683.355469 70.585938 684.523438 91.378906 Z M 684.523438 91.378906 " fill-opacity="1" fill-rule="nonzero"/><path fill="#ffffff" d="M 640.113281 98.15625 C 639.179688 97.6875 638.476562 97.21875 637.542969 96.753906 C 637.542969 94.882812 638.011719 93.25 638.710938 91.613281 C 639.648438 93.714844 640.113281 96.050781 640.113281 98.15625 Z M 640.113281 98.15625 " fill-opacity="1" fill-rule="nonzero"/><path fill="#ffffff" d="M 677.511719 96.753906 C 676.808594 97.21875 675.875 97.6875 674.941406 98.15625 C 674.941406 96.050781 675.40625 93.714844 676.109375 91.613281 C 677.042969 93.25 677.511719 95.117188 677.511719 96.753906 Z M 677.511719 96.753906 " fill-opacity="1" fill-rule="nonzero"/><path fill="#eda594" d="M 649.464844 67.785156 L 649.464844 77.128906 C 649.464844 81.566406 653.203125 85.304688 657.644531 85.304688 C 662.085938 85.304688 665.824219 81.800781 665.824219 77.128906 L 665.824219 67.785156 Z M 649.464844 67.785156 " fill-opacity="1" fill-rule="nonzero"/><path fill="#feb9a5" d="M 642.453125 60.308594 C 642.917969 63.34375 644.320312 65.449219 645.722656 65.214844 C 645.957031 65.214844 645.957031 65.214844 645.957031 65.214844 C 648.0625 71.988281 652.734375 77.597656 658.113281 77.597656 C 663.488281 77.597656 667.929688 71.988281 670.265625 65.214844 C 670.265625 65.214844 670.5 65.214844 670.5 65.214844 C 671.902344 65.449219 673.539062 63.113281 673.773438 60.308594 C 674.238281 57.269531 673.304688 54.933594 671.902344 54.703125 C 671.667969 54.703125 671.433594 54.703125 671.433594 54.703125 C 670.734375 45.824219 664.890625 40.917969 658.113281 40.917969 C 651.101562 40.917969 645.488281 45.824219 644.789062 54.703125 C 644.554688 54.703125 644.320312 54.703125 644.320312 54.703125 C 642.917969 54.933594 641.984375 57.503906 642.453125 60.308594 Z M 642.453125 60.308594 " fill-opacity="1" fill-rule="nonzero"/><path fill="#1d2943" d="M 672.371094 58.4375 C 669.796875 55.167969 668.863281 54.46875 669.097656 50.261719 C 660.214844 52.832031 656.476562 52.132812 651.566406 46.523438 C 650.867188 50.027344 650.164062 51.429688 647.59375 52.832031 C 648.0625 55.402344 645.257812 57.738281 644.554688 58.4375 C 642.21875 55.871094 641.75 54 641.515625 49.5625 C 641.28125 44.890625 642.21875 42.320312 646.425781 41.851562 C 646.425781 41.851562 658.113281 29.703125 668.394531 37.179688 C 678.914062 45.125 672.371094 58.4375 672.371094 58.4375 Z M 672.371094 58.4375 " fill-opacity="1" fill-rule="nonzero"/><path fill="#ccd7f6" d="M 713.972656 135.53125 L 713.972656 148.148438 C 713.972656 150.015625 712.335938 151.652344 710.46875 151.652344 L 604.585938 151.652344 C 602.71875 151.652344 601.082031 150.015625 601.082031 148.148438 L 601.082031 135.53125 C 601.082031 133.664062 602.71875 132.027344 604.585938 132.027344 L 710.46875 132.027344 C 712.335938 132.027344 713.972656 133.664062 713.972656 135.53125 Z M 713.972656 135.53125 " fill-opacity="1" fill-rule="nonzero"/><path fill="#ccd7f6" d="M 713.972656 165.4375 L 713.972656 178.050781 C 713.972656 179.921875 712.335938 181.554688 710.46875 181.554688 L 604.585938 181.554688 C 602.71875 181.554688 601.082031 179.921875 601.082031 178.050781 L 601.082031 165.4375 C 601.082031 163.566406 602.71875 161.933594 604.585938 161.933594 L 710.46875 161.933594 C 712.335938 161.933594 713.972656 163.566406 713.972656 165.4375 Z M 713.972656 165.4375 " fill-opacity="1" fill-rule="nonzero"/><path fill="#f9c21d" d="M 690.132812 196.976562 L 690.132812 209.589844 C 690.132812 211.457031 688.496094 213.09375 686.628906 213.09375 L 628.660156 213.09375 C 626.792969 213.09375 625.15625 211.457031 625.15625 209.589844 L 625.15625 196.976562 C 625.15625 195.105469 626.792969 193.46875 628.660156 193.46875 L 686.628906 193.46875 C 688.496094 193.46875 690.132812 195.105469 690.132812 196.976562 Z M 690.132812 196.976562 " fill-opacity="1" fill-rule="nonzero"/><path fill="#ffffff" d="M 698.78125 142.308594 C 698.78125 145.113281 696.445312 147.449219 693.640625 147.449219 C 690.835938 147.449219 688.496094 145.113281 688.496094 142.308594 C 688.496094 139.503906 690.835938 137.167969 693.640625 137.167969 C 696.445312 137.167969 698.78125 139.503906 698.78125 142.308594 Z M 698.78125 142.308594 " fill-opacity="1" fill-rule="nonzero"/><path fill="#ffffff" d="M 680.785156 142.308594 C 680.785156 145.113281 678.445312 147.449219 675.640625 147.449219 C 672.835938 147.449219 670.5 145.113281 670.5 142.308594 C 670.5 139.503906 672.835938 137.167969 675.640625 137.167969 C 678.445312 137.167969 680.785156 139.503906 680.785156 142.308594 Z M 680.785156 142.308594 " fill-opacity="1" fill-rule="nonzero"/><path fill="#ffffff" d="M 662.785156 142.308594 C 662.785156 145.113281 660.449219 147.449219 657.644531 147.449219 C 654.839844 147.449219 652.503906 145.113281 652.503906 142.308594 C 652.503906 139.503906 654.839844 137.167969 657.644531 137.167969 C 660.449219 137.167969 662.785156 139.503906 662.785156 142.308594 Z M 662.785156 142.308594 " fill-opacity="1" fill-rule="nonzero"/><path fill="#ffffff" d="M 644.789062 142.308594 C 644.789062 145.113281 642.453125 147.449219 639.648438 147.449219 C 636.84375 147.449219 634.503906 145.113281 634.503906 142.308594 C 634.503906 139.503906 636.84375 137.167969 639.648438 137.167969 C 642.453125 137.167969 644.789062 139.503906 644.789062 142.308594 Z M 644.789062 142.308594 " fill-opacity="1" fill-rule="nonzero"/><path fill="#ffffff" d="M 626.792969 142.308594 C 626.792969 145.113281 624.453125 147.449219 621.648438 147.449219 C 618.84375 147.449219 616.507812 145.113281 616.507812 142.308594 C 616.507812 139.503906 618.84375 137.167969 621.648438 137.167969 C 624.453125 137.167969 626.792969 139.503906 626.792969 142.308594 Z M 626.792969 142.308594 " fill-opacity="1" fill-rule="nonzero"/><path fill="#ffffff" d="M 698.78125 171.742188 C 698.78125 174.546875 696.445312 176.882812 693.640625 176.882812 C 690.835938 176.882812 688.496094 174.546875 688.496094 171.742188 C 688.496094 168.941406 690.835938 166.605469 693.640625 166.605469 C 696.445312 166.605469 698.78125 168.941406 698.78125 171.742188 Z M 698.78125 171.742188 " fill-opacity="1" fill-rule="nonzero"/><path fill="#ffffff" d="M 680.785156 171.742188 C 680.785156 174.546875 678.445312 176.882812 675.640625 176.882812 C 672.835938 176.882812 670.5 174.546875 670.5 171.742188 C 670.5 168.941406 672.835938 166.605469 675.640625 166.605469 C 678.445312 166.605469 680.785156 168.941406 680.785156 171.742188 Z M 680.785156 171.742188 " fill-opacity="1" fill-rule="nonzero"/><path fill="#ffffff" d="M 662.785156 171.742188 C 662.785156 174.546875 660.449219 176.882812 657.644531 176.882812 C 654.839844 176.882812 652.503906 174.546875 652.503906 171.742188 C 652.503906 168.941406 654.839844 166.605469 657.644531 166.605469 C 660.449219 166.605469 662.785156 168.941406 662.785156 171.742188 Z M 662.785156 171.742188 " fill-opacity="1" fill-rule="nonzero"/><path fill="#ffffff" d="M 644.789062 171.742188 C 644.789062 174.546875 642.453125 176.882812 639.648438 176.882812 C 636.84375 176.882812 634.503906 174.546875 634.503906 171.742188 C 634.503906 168.941406 636.84375 166.605469 639.648438 166.605469 C 642.453125 166.605469 644.789062 168.941406 644.789062 171.742188 Z M 644.789062 171.742188 " fill-opacity="1" fill-rule="nonzero"/><path fill="#ffffff" d="M 626.792969 171.742188 C 626.792969 174.546875 624.453125 176.882812 621.648438 176.882812 C 618.84375 176.882812 616.507812 174.546875 616.507812 171.742188 C 616.507812 168.941406 618.84375 166.605469 621.648438 166.605469 C 624.453125 166.605469 626.792969 168.941406 626.792969 171.742188 Z M 626.792969 171.742188 " fill-opacity="1" fill-rule="nonzero"/><path fill="#15142b" d="M 674.707031 203.984375 L 640.347656 203.984375 C 640.113281 203.984375 639.648438 203.75 639.648438 203.28125 C 639.648438 202.816406 639.878906 202.582031 640.347656 202.582031 L 674.707031 202.582031 C 674.941406 202.582031 675.40625 202.816406 675.40625 203.28125 C 675.40625 203.75 675.175781 203.984375 674.707031 203.984375 Z M 674.707031 203.984375 " fill-opacity="1" fill-rule="nonzero"/><path fill="#a6b6f8" d="M 439.105469 415.40625 C 438.871094 415.171875 438.871094 414.707031 439.105469 414.472656 C 439.339844 414.238281 439.804688 414.238281 440.039062 414.472656 C 445.183594 421.015625 452.894531 423.351562 459.207031 420.546875 C 464.113281 418.445312 468.320312 413.304688 472.996094 410.734375 C 477.4375 408.398438 482.578125 407.929688 487.488281 409.566406 C 492.394531 411.203125 496.601562 414.941406 499.875 419.847656 C 500.109375 420.078125 499.875 420.546875 499.640625 420.546875 C 499.40625 420.78125 498.941406 420.546875 498.941406 420.3125 C 495.902344 415.40625 491.695312 411.902344 487.253906 410.5 C 482.8125 408.867188 477.90625 409.332031 473.699219 411.667969 C 468.789062 414.238281 464.816406 419.144531 459.671875 421.480469 C 452.429688 424.984375 444.246094 421.949219 439.105469 415.40625 Z M 439.105469 415.40625 " fill-opacity="1" fill-rule="nonzero"/><path fill="#a6b6f8" d="M 441.207031 398.121094 C 440.976562 397.886719 440.976562 397.417969 441.207031 397.183594 C 441.441406 396.953125 441.910156 396.953125 442.144531 397.183594 C 444.949219 399.988281 448.921875 401.15625 453.128906 400.457031 C 460.84375 399.054688 467.386719 391.8125 475.101562 389.710938 C 483.746094 387.140625 493.566406 391.109375 499.875 399.753906 C 500.109375 399.988281 500.109375 400.457031 499.640625 400.457031 C 499.40625 400.6875 498.941406 400.6875 498.941406 400.222656 C 492.863281 391.8125 483.746094 388.074219 475.566406 390.644531 C 467.621094 392.980469 461.777344 399.988281 453.363281 401.625 C 448.6875 402.792969 444.246094 401.390625 441.207031 398.121094 Z M 441.207031 398.121094 " fill-opacity="1" fill-rule="nonzero"/><path fill="#a6b6f8" d="M 225.707031 305.375 C 225.472656 305.375 225.242188 304.90625 225.242188 304.671875 C 225.242188 304.4375 225.707031 304.203125 225.941406 304.203125 C 233.421875 305.375 239.964844 302.335938 242.535156 296.261719 C 245.808594 288.785156 242.535156 276.636719 254.925781 271.265625 C 259.132812 269.394531 264.507812 269.164062 269.648438 270.5625 C 269.882812 270.5625 270.117188 271.03125 270.117188 271.265625 C 270.117188 271.5 269.648438 271.730469 269.414062 271.730469 C 264.507812 270.332031 259.367188 270.5625 255.390625 272.433594 C 243.9375 277.574219 246.976562 289.253906 243.707031 296.730469 C 240.902344 303.035156 233.886719 306.542969 225.707031 305.375 Z M 225.707031 305.375 " fill-opacity="1" fill-rule="nonzero"/><g clip-path="url(#4f21ac9859)"><path fill="#a6b6f8" d="M 216.59375 292.289062 C 216.359375 292.289062 216.125 292.058594 216.125 291.589844 C 216.125 291.355469 216.359375 291.121094 216.828125 291.121094 C 220.566406 291.355469 223.839844 289.722656 226.175781 286.683594 C 230.382812 281.078125 230.617188 271.964844 234.355469 265.660156 C 238.5625 258.417969 247.679688 255.144531 257.261719 257.015625 C 257.496094 257.015625 257.730469 257.480469 257.730469 257.714844 C 257.730469 257.949219 257.261719 258.183594 257.027344 258.183594 C 247.914062 256.3125 239.265625 259.351562 235.289062 266.125 C 231.550781 272.433594 231.785156 281.078125 227.109375 287.152344 C 224.304688 290.890625 220.566406 292.757812 216.59375 292.289062 Z M 216.59375 292.289062 " fill-opacity="1" fill-rule="nonzero"/></g><path fill="#a6b6f8" d="M 526.988281 324.761719 C 522.546875 324.761719 518.808594 321.027344 518.808594 316.585938 C 518.808594 312.148438 522.546875 308.410156 526.988281 308.410156 C 531.429688 308.410156 535.167969 312.148438 535.167969 316.585938 C 535.167969 321.027344 531.429688 324.761719 526.988281 324.761719 Z M 526.988281 309.578125 C 523.25 309.578125 519.976562 312.617188 519.976562 316.585938 C 519.976562 320.558594 523.015625 323.59375 526.988281 323.59375 C 530.960938 323.59375 534 320.558594 534 316.585938 C 534 312.617188 530.726562 309.578125 526.988281 309.578125 Z M 526.988281 309.578125 " fill-opacity="1" fill-rule="nonzero"/><path fill="#ffffff" d="M 292.085938 69.886719 C 298.164062 84.605469 290.917969 101.660156 276.195312 107.5 C 261.46875 113.574219 244.40625 106.332031 238.5625 91.613281 C 232.484375 76.894531 239.730469 59.839844 254.457031 54 C 269.183594 47.925781 286.011719 54.933594 292.085938 69.886719 Z M 292.085938 69.886719 " fill-opacity="1" fill-rule="nonzero"/><path fill="#0d243f" d="M 237.863281 91.613281 C 231.785156 76.429688 239.03125 59.375 254.222656 53.300781 C 269.414062 47.226562 286.476562 54.46875 292.554688 69.652344 C 298.632812 84.839844 291.386719 101.890625 276.195312 107.964844 C 261 114.039062 243.9375 106.796875 237.863281 91.613281 Z M 254.691406 54.46875 C 240.199219 60.308594 233.1875 76.894531 239.03125 91.378906 C 244.875 105.863281 261.46875 112.871094 275.960938 107.03125 C 290.453125 101.191406 297.464844 84.605469 291.621094 70.121094 C 285.777344 55.636719 269.183594 48.394531 254.691406 54.46875 Z M 254.691406 54.46875 " fill-opacity="1" fill-rule="nonzero"/><path fill="#00d3bd" d="M 266.609375 66.148438 C 268.011719 69.652344 266.378906 73.390625 262.871094 74.792969 C 259.367188 76.195312 255.625 74.558594 254.222656 71.054688 C 252.820312 67.550781 254.457031 63.8125 257.964844 62.410156 C 261.46875 61.242188 265.207031 62.878906 266.609375 66.148438 Z M 266.609375 66.148438 " fill-opacity="1" fill-rule="nonzero"/><path fill="#00d3bd" d="M 283.90625 87.875 C 256.5625 98.855469 254.457031 100.957031 253.523438 97.21875 C 251.652344 89.042969 255.859375 80.632812 263.804688 77.363281 C 271.753906 74.089844 280.867188 77.363281 285.074219 84.605469 C 285.777344 85.773438 285.308594 87.175781 283.90625 87.875 Z M 283.90625 87.875 " fill-opacity="1" fill-rule="nonzero"/><path fill="#a6b6f8" d="M 478.605469 481.519531 C 478.371094 481.519531 478.136719 481.054688 478.136719 480.820312 C 478.136719 480.585938 478.605469 480.351562 478.839844 480.351562 C 481.878906 481.054688 484.917969 481.289062 487.953125 481.054688 C 488.1875 481.054688 488.65625 481.289062 488.65625 481.519531 C 488.65625 481.753906 488.421875 482.222656 488.1875 482.222656 C 485.148438 482.222656 481.878906 481.988281 478.605469 481.519531 Z M 496.835938 480.121094 C 496.835938 479.886719 496.835938 479.417969 497.304688 479.417969 C 500.34375 478.484375 503.148438 477.316406 505.71875 475.679688 C 505.953125 475.445312 506.417969 475.679688 506.417969 475.914062 C 506.652344 476.148438 506.417969 476.613281 506.1875 476.613281 C 503.613281 478.25 500.578125 479.417969 497.539062 480.351562 C 497.070312 480.585938 496.835938 480.351562 496.835938 480.121094 Z M 469.957031 478.015625 C 467.855469 476.847656 465.984375 475.214844 464.347656 473.34375 C 464.113281 473.109375 464.113281 472.644531 464.347656 472.410156 C 464.582031 472.175781 465.050781 472.175781 465.28125 472.410156 C 466.917969 474.046875 468.789062 475.679688 470.660156 476.847656 C 470.894531 477.082031 471.125 477.316406 470.894531 477.550781 C 470.425781 478.015625 470.191406 478.25 469.957031 478.015625 Z M 512.964844 471.007812 C 512.730469 470.773438 512.730469 470.308594 512.964844 470.074219 C 515.066406 468.203125 517.40625 465.867188 519.273438 463.296875 C 519.507812 463.066406 519.742188 463.066406 520.210938 463.296875 C 520.445312 463.53125 520.445312 463.765625 520.210938 464.234375 C 518.105469 466.804688 516.003906 469.140625 513.664062 471.007812 C 513.433594 471.242188 513.199219 471.242188 512.964844 471.007812 Z M 524.882812 456.757812 C 524.652344 456.523438 524.417969 456.289062 524.652344 456.054688 C 526.285156 453.488281 527.6875 450.917969 529.324219 448.113281 C 529.558594 447.878906 529.792969 447.644531 530.027344 447.878906 C 530.261719 448.113281 530.496094 448.347656 530.261719 448.582031 C 528.625 451.617188 527.222656 454.1875 525.585938 456.757812 C 525.585938 456.992188 525.117188 456.992188 524.882812 456.757812 Z M 533.765625 440.402344 C 533.53125 440.171875 533.300781 439.9375 533.53125 439.703125 C 533.765625 439.234375 534.703125 437.367188 537.273438 431.058594 C 537.507812 430.824219 537.738281 430.59375 537.972656 430.824219 C 538.207031 431.058594 538.441406 431.292969 538.207031 431.527344 C 535.167969 438.535156 534.703125 439.46875 534.46875 440.171875 C 534.46875 440.402344 534 440.402344 533.765625 440.402344 Z M 628.429688 425.21875 C 625.390625 424.519531 622.585938 423.351562 619.78125 421.246094 C 619.546875 421.015625 619.546875 420.78125 619.78125 420.3125 C 620.011719 420.078125 620.246094 420.078125 620.714844 420.3125 C 623.285156 422.183594 626.089844 423.582031 628.894531 424.050781 C 629.128906 424.050781 629.363281 424.519531 629.363281 424.75 C 629.128906 425.21875 628.660156 425.21875 628.429688 425.21875 Z M 637.308594 424.285156 C 637.308594 424.050781 637.308594 423.582031 637.777344 423.582031 C 640.582031 422.648438 643.152344 421.015625 645.488281 418.910156 C 645.722656 418.675781 646.191406 418.675781 646.425781 418.910156 C 646.660156 419.144531 646.660156 419.613281 646.425781 419.847656 C 644.085938 422.183594 641.28125 423.816406 638.246094 424.984375 C 637.542969 424.75 637.308594 424.519531 637.308594 424.285156 Z M 541.246094 423.117188 C 541.011719 422.882812 540.777344 422.648438 541.011719 422.414062 C 542.414062 419.144531 543.816406 416.339844 544.984375 414.003906 C 545.21875 413.773438 545.453125 413.539062 545.6875 413.773438 C 545.921875 414.003906 546.152344 414.238281 545.921875 414.472656 C 544.75 417.042969 543.347656 419.613281 541.945312 422.882812 C 541.945312 423.117188 541.480469 423.351562 541.246094 423.117188 Z M 613.234375 414.472656 C 611.597656 412.136719 609.964844 409.332031 608.328125 406.296875 C 608.09375 406.0625 608.328125 405.59375 608.5625 405.59375 C 608.792969 405.363281 609.261719 405.59375 609.261719 405.828125 C 610.664062 408.867188 612.300781 411.4375 613.9375 413.773438 C 614.171875 414.003906 614.171875 414.472656 613.703125 414.472656 C 613.703125 414.707031 613.46875 414.707031 613.234375 414.472656 Z M 650.632812 412.136719 C 650.398438 411.902344 650.164062 411.667969 650.398438 411.4375 C 651.566406 408.632812 652.035156 405.59375 652.035156 402.558594 C 652.035156 402.324219 652.269531 401.855469 652.503906 401.855469 C 652.734375 401.855469 652.96875 402.089844 653.203125 402.324219 C 653.203125 405.59375 652.734375 408.632812 651.566406 411.667969 C 651.332031 412.136719 650.867188 412.136719 650.632812 412.136719 Z M 549.660156 406.53125 C 549.425781 406.296875 549.191406 406.0625 549.425781 405.828125 C 551.296875 402.558594 553.632812 399.519531 554.800781 398.121094 C 555.035156 397.886719 555.269531 397.886719 555.738281 398.121094 C 555.972656 398.351562 555.972656 398.585938 555.738281 399.054688 C 554.800781 400.222656 553.167969 402.324219 550.363281 406.761719 C 550.363281 406.53125 549.894531 406.761719 549.660156 406.53125 Z M 604.820312 397.652344 C 603.652344 394.613281 602.71875 391.8125 602.015625 388.773438 C 602.015625 388.539062 602.015625 388.074219 602.484375 388.074219 C 602.71875 388.074219 603.183594 388.074219 603.183594 388.539062 C 604.121094 391.578125 605.054688 394.382812 605.988281 397.417969 C 605.988281 397.652344 605.988281 398.121094 605.523438 398.121094 C 605.289062 398.121094 604.820312 397.886719 604.820312 397.652344 Z M 649.929688 393.679688 C 648.761719 390.878906 647.359375 388.308594 645.257812 385.738281 C 645.023438 385.503906 645.023438 385.035156 645.257812 384.804688 C 645.488281 384.570312 645.957031 384.570312 646.191406 384.804688 C 648.296875 387.371094 649.929688 390.175781 651.101562 392.980469 C 651.332031 393.214844 651.101562 393.679688 650.867188 393.679688 C 650.398438 393.914062 650.164062 393.914062 649.929688 393.679688 Z M 561.113281 391.8125 C 560.878906 391.578125 560.878906 391.109375 561.113281 390.878906 C 563.449219 388.773438 565.789062 386.671875 568.359375 384.804688 C 568.59375 384.570312 569.058594 384.570312 569.058594 385.035156 C 569.058594 385.503906 569.292969 385.738281 568.828125 385.738281 C 566.253906 387.605469 563.917969 389.476562 561.8125 391.8125 C 561.8125 392.046875 561.347656 392.046875 561.113281 391.8125 Z M 576.070312 380.597656 C 575.839844 380.363281 576.070312 379.898438 576.304688 379.898438 C 579.109375 378.261719 581.914062 377.09375 584.71875 375.925781 C 584.953125 375.691406 585.421875 375.925781 585.421875 376.160156 C 585.421875 376.394531 585.421875 376.859375 585.1875 376.859375 C 582.382812 378.027344 579.578125 379.429688 576.773438 380.832031 C 576.539062 381.066406 576.304688 380.832031 576.070312 380.597656 Z M 599.679688 379.429688 C 599.210938 377.328125 598.742188 375.226562 598.511719 372.886719 C 597.109375 373.121094 595.472656 373.589844 594.070312 373.824219 C 593.835938 373.824219 593.367188 373.824219 593.367188 373.355469 C 593.367188 372.886719 593.367188 372.65625 593.835938 372.65625 C 595.238281 372.1875 596.875 371.953125 598.511719 371.71875 C 598.511719 371.253906 598.277344 370.550781 598.277344 370.085938 C 598.277344 369.851562 598.511719 369.382812 598.742188 369.382812 C 598.976562 369.382812 599.445312 369.617188 599.445312 369.851562 C 599.445312 370.320312 599.679688 370.785156 599.679688 371.488281 C 600.847656 371.253906 602.015625 371.019531 603.183594 371.019531 C 603.417969 371.019531 603.886719 371.253906 603.886719 371.488281 C 603.886719 371.71875 603.652344 372.1875 603.417969 372.1875 C 602.25 372.421875 601.082031 372.421875 599.914062 372.65625 C 600.144531 374.757812 600.613281 377.09375 601.082031 379.195312 C 601.082031 379.429688 600.847656 379.898438 600.613281 379.898438 C 600.144531 380.128906 599.679688 379.898438 599.679688 379.429688 Z M 638.710938 379.429688 C 636.375 377.792969 633.570312 376.394531 630.53125 375.226562 C 630.296875 375.226562 630.0625 374.757812 630.296875 374.523438 C 630.53125 374.289062 630.765625 374.058594 631 374.289062 C 634.039062 375.457031 636.84375 376.859375 639.414062 378.730469 C 639.648438 378.960938 639.648438 379.195312 639.648438 379.429688 C 639.179688 379.664062 638.945312 379.664062 638.710938 379.429688 Z M 621.648438 372.65625 C 618.609375 372.1875 615.574219 371.71875 612.535156 371.71875 C 612.300781 371.71875 612.066406 371.488281 612.066406 371.019531 C 612.066406 370.785156 612.300781 370.550781 612.769531 370.550781 C 616.039062 370.550781 619.078125 371.019531 622.117188 371.488281 C 622.351562 371.488281 622.585938 371.953125 622.585938 372.1875 C 622.351562 372.65625 621.882812 372.886719 621.648438 372.65625 Z M 597.808594 361.441406 C 597.574219 361.441406 597.339844 361.207031 597.339844 360.972656 C 597.109375 357.9375 597.109375 354.667969 596.875 351.628906 C 596.875 351.394531 597.109375 350.929688 597.339844 350.929688 C 597.574219 350.929688 597.808594 351.164062 598.042969 351.394531 C 598.042969 354.433594 598.277344 357.703125 598.511719 360.742188 C 598.277344 361.207031 598.042969 361.441406 597.808594 361.441406 Z M 597.574219 342.753906 C 597.109375 342.753906 596.875 342.519531 596.875 342.050781 C 597.109375 339.015625 597.339844 335.742188 597.808594 332.707031 C 597.808594 332.472656 598.042969 332.238281 598.511719 332.238281 C 598.742188 332.238281 598.976562 332.472656 598.976562 332.941406 C 598.511719 335.976562 598.277344 339.015625 598.042969 342.285156 C 598.042969 342.519531 597.808594 342.753906 597.574219 342.753906 Z M 599.679688 324.296875 C 599.445312 324.296875 599.210938 323.828125 599.210938 323.59375 C 599.679688 320.558594 600.378906 317.519531 601.316406 314.484375 C 601.316406 314.25 601.78125 314.015625 602.015625 314.015625 C 602.25 314.015625 602.484375 314.484375 602.484375 314.71875 C 601.78125 317.753906 601.082031 320.792969 600.378906 323.828125 C 600.378906 324.0625 600.144531 324.296875 599.679688 324.296875 Z M 604.351562 306.074219 C 604.121094 306.074219 603.886719 305.605469 603.886719 305.375 C 604.820312 302.335938 605.988281 299.53125 607.15625 296.496094 C 607.390625 296.261719 607.625 296.027344 607.859375 296.261719 C 608.09375 296.496094 608.328125 296.730469 608.09375 296.964844 C 606.925781 299.765625 605.988281 302.804688 604.820312 305.605469 C 604.820312 306.074219 604.585938 306.308594 604.351562 306.074219 Z M 611.132812 288.785156 C 610.898438 288.550781 610.664062 288.320312 610.898438 288.085938 C 612.300781 285.28125 613.703125 282.480469 615.339844 279.675781 C 615.574219 279.441406 615.804688 279.207031 616.039062 279.441406 C 616.273438 279.675781 616.507812 279.910156 616.273438 280.140625 C 614.871094 282.710938 613.234375 285.515625 612.066406 288.320312 C 611.832031 288.785156 611.367188 289.019531 611.132812 288.785156 Z M 620.246094 272.433594 C 620.011719 272.199219 620.011719 271.964844 620.011719 271.730469 C 621.648438 269.164062 623.519531 266.59375 625.390625 264.023438 C 625.621094 263.789062 625.855469 263.789062 626.324219 264.023438 C 626.558594 264.257812 626.558594 264.488281 626.324219 264.957031 C 624.453125 267.292969 622.585938 269.863281 620.949219 272.433594 C 620.949219 272.667969 620.480469 272.667969 620.246094 272.433594 Z M 620.246094 272.433594 " fill-opacity="1" fill-rule="nonzero"/><path fill="#a6b6f8" d="M 445.648438 122.917969 C 445.414062 122.683594 445.414062 122.21875 445.648438 121.984375 L 455 112.640625 C 455.234375 112.40625 455.699219 112.40625 455.933594 112.640625 C 456.167969 112.871094 456.167969 113.339844 455.933594 113.574219 L 446.585938 122.917969 C 446.351562 123.152344 445.882812 123.152344 445.648438 122.917969 Z M 445.648438 122.917969 " fill-opacity="1" fill-rule="nonzero"/><path fill="#a6b6f8" d="M 455 122.917969 L 445.648438 113.574219 C 445.414062 113.339844 445.414062 112.871094 445.648438 112.640625 C 445.882812 112.40625 446.351562 112.40625 446.585938 112.640625 L 455.933594 121.984375 C 456.167969 122.21875 456.167969 122.683594 455.933594 122.917969 C 455.699219 123.152344 455.234375 123.152344 455 122.917969 Z M 455 122.917969 " fill-opacity="1" fill-rule="nonzero"/><path fill="#15142b" d="M 362.675781 81.332031 C 362.441406 81.332031 362.207031 81.101562 362.207031 80.867188 C 361.507812 75.492188 365.945312 73.859375 365.945312 73.859375 C 366.179688 73.625 366.648438 73.859375 366.648438 74.089844 C 366.648438 74.324219 366.648438 74.792969 366.414062 74.792969 C 366.179688 74.792969 362.910156 76.195312 363.375 80.632812 C 363.140625 80.867188 362.910156 81.332031 362.675781 81.332031 Z M 362.675781 81.332031 " fill-opacity="1" fill-rule="nonzero"/><path fill="#15142b" d="M 362.910156 77.597656 C 362.675781 77.363281 362.441406 77.128906 362.675781 76.894531 C 362.910156 76.660156 363.140625 76.429688 363.375 76.660156 C 365.011719 77.363281 366.179688 78.0625 367.582031 77.828125 C 368.050781 77.828125 368.285156 78.0625 368.285156 78.296875 C 368.285156 78.53125 368.050781 78.996094 367.816406 78.996094 C 366.179688 78.996094 364.542969 78.296875 362.910156 77.597656 Z M 362.910156 77.597656 " fill-opacity="1" fill-rule="nonzero"/></svg>